<?xml version="1.0" encoding="UTF-8" standalone="no"?>
<!DOCTYPE svg PUBLIC "-//W3C//DTD SVG 1.1//EN"
 "http://www.w3.org/Graphics/SVG/1.1/DTD/svg11.dtd">
<!-- Generated by graphviz version 12.1.2 (20240928.0832)
 -->
<!-- Title: db Pages: 1 -->
<svg width="590pt" height="284pt"
 viewBox="0.00 0.00 589.88 284.00" xmlns="http://www.w3.org/2000/svg" xmlns:xlink="http://www.w3.org/1999/xlink">
<g id="graph0" class="graph" transform="scale(1 1) rotate(0) translate(4 280)">
<title>db</title>
<polygon fill="white" stroke="none" points="-4,4 -4,-280 585.88,-280 585.88,4 -4,4"/>
<!-- migrations -->
<g id="node1" class="node">
<title>migrations</title>
<polygon fill="#efefef" stroke="none" points="43.2,-151 43.2,-186.6 258.68,-186.6 258.68,-151 43.2,-151"/>
<polygon fill="none" stroke="black" points="43.2,-151 43.2,-186.6 258.68,-186.6 258.68,-151 43.2,-151"/>
<text text-anchor="start" x="50.2" y="-164.4" font-family="Arial Bold" font-size="18.00">migrations</text>
<text text-anchor="start" x="127.19" y="-164.4" font-family="Arial" font-size="14.00">    </text>
<text text-anchor="start" x="158.31" y="-164.4" font-family="Arial" font-size="14.00" fill="#666666">[BASE TABLE]</text>
<polygon fill="none" stroke="black" points="43.2,-120.2 43.2,-151 258.68,-151 258.68,-120.2 43.2,-120.2"/>
<text text-anchor="start" x="50.2" y="-132.4" font-family="Arial" font-size="14.00">id </text>
<text text-anchor="start" x="64.99" y="-132.4" font-family="Arial" font-size="14.00" fill="#666666">[varchar(255)]</text>
<polygon fill="none" stroke="black" points="43.2,-89.4 43.2,-120.2 258.68,-120.2 258.68,-89.4 43.2,-89.4"/>
<text text-anchor="start" x="50.2" y="-101.6" font-family="Arial" font-size="14.00">applied_at </text>
<text text-anchor="start" x="118.7" y="-101.6" font-family="Arial" font-size="14.00" fill="#666666">[datetime]</text>
</g>
<!-- users -->
<g id="node2" class="node">
<title>users</title>
<polygon fill="#efefef" stroke="none" points="363.2,-197.2 363.2,-232.8 538.68,-232.8 538.68,-197.2 363.2,-197.2"/>
<polygon fill="none" stroke="black" points="363.2,-197.2 363.2,-232.8 538.68,-232.8 538.68,-197.2 363.2,-197.2"/>
<text text-anchor="start" x="370.2" y="-210.6" font-family="Arial Bold" font-size="18.00">users</text>
<text text-anchor="start" x="407.19" y="-210.6" font-family="Arial" font-size="14.00">    </text>
<text text-anchor="start" x="438.31" y="-210.6" font-family="Arial" font-size="14.00" fill="#666666">[BASE TABLE]</text>
<polygon fill="none" stroke="black" points="363.2,-166.4 363.2,-197.2 538.68,-197.2 538.68,-166.4 363.2,-166.4"/>
<text text-anchor="start" x="370.2" y="-178.6" font-family="Arial" font-size="14.00">id </text>
<text text-anchor="start" x="384.99" y="-178.6" font-family="Arial" font-size="14.00" fill="#666666">[bigint]</text>
<polygon fill="none" stroke="black" points="363.2,-135.6 363.2,-166.4 538.68,-166.4 538.68,-135.6 363.2,-135.6"/>
<text text-anchor="start" x="370.2" y="-147.8" font-family="Arial" font-size="14.00">uuid </text>
<text text-anchor="start" x="400.56" y="-147.8" font-family="Arial" font-size="14.00" fill="#666666">[varchar(36)]</text>
<polygon fill="none" stroke="black" points="363.2,-104.8 363.2,-135.6 538.68,-135.6 538.68,-104.8 363.2,-104.8"/>
<text text-anchor="start" x="370.2" y="-117" font-family="Arial" font-size="14.00">name </text>
<text text-anchor="start" x="409.11" y="-117" font-family="Arial" font-size="14.00" fill="#666666">[varchar(256)]</text>
<polygon fill="none" stroke="black" points="363.2,-74 363.2,-104.8 538.68,-104.8 538.68,-74 363.2,-74"/>
<text text-anchor="start" x="370.2" y="-86.2" font-family="Arial" font-size="14.00">email </text>
<text text-anchor="start" x="407.54" y="-86.2" font-family="Arial" font-size="14.00" fill="#666666">[varchar(256)]</text>
<polygon fill="none" stroke="black" points="363.2,-43.2 363.2,-74 538.68,-74 538.68,-43.2 363.2,-43.2"/>
<text text-anchor="start" x="370.2" y="-55.4" font-family="Arial" font-size="14.00">password </text>
<text text-anchor="start" x="434.01" y="-55.4" font-family="Arial" font-size="14.00" fill="#666666">[varchar(255)]</text>
</g>
</g>
</svg>
